<?xml version="1.0" encoding="UTF-8"?>
<!DOCTYPE svg PUBLIC "-//W3C//DTD SVG 1.1//EN" "http://www.w3.org/Graphics/SVG/1.1/DTD/svg11.dtd">
<!-- Creator: CorelDRAW -->
<svg xmlns="http://www.w3.org/2000/svg" xml:space="preserve" width="15in" height="15in" version="1.1" style="shape-rendering:geometricPrecision; text-rendering:geometricPrecision; image-rendering:optimizeQuality; fill-rule:evenodd; clip-rule:evenodd"
viewBox="0 0 15000 15000"
 xmlns:xlink="http://www.w3.org/1999/xlink"
 xmlns:xodm="http://www.corel.com/coreldraw/odm/2003">
 <defs>
  <style type="text/css">
   <![CDATA[
    .fil1 {fill:black}
    .fil0 {fill:white}
   ]]>
  </style>
 </defs>
 <g id="Layer_x0020_1">
  <metadata id="CorelCorpID_0Corel-Layer"/>
  <rect class="fil0" width="15000" height="15000"/>
  <g id="_1744017954448">
   <path class="fil1" d="M7885.72 6491.07c0,-194.02 -156.33,-351.31 -349.18,-351.31 -192.84,0 -349.18,157.29 -349.18,351.31 0,194.02 156.34,351.31 349.18,351.31 192.85,0 349.18,-157.29 349.18,-351.31z"/>
   <path class="fil1" d="M7270.25 7501.47c-805.43,-304.6 -1416.1,-1106.28 -1072.51,-1945.14 -573.81,852.91 66.38,1918.88 1080,2237.55 46.84,-89.79 60.29,-154.51 43.43,-207.98 -8.72,-27.69 -25.87,-55.37 -50.93,-84.43z"/>
   <path class="fil1" d="M7218.71 7895.21c-615.13,-215.02 -1472.46,-843 -1375.87,-1749.81 -256.56,958.11 466.48,1706.61 1274.39,1960.01 31.89,-79.07 66.78,-150.84 101.49,-210.2z"/>
   <path class="fil1" d="M7654.91 7126.21c506.06,-289.07 913.87,-781.89 686.46,-1435.61 466.84,637.69 74.89,1326.85 -521.21,1655.79 -34.6,-70.76 -82.11,-134.87 -137.68,-192.65 -8.99,-9.34 -18.19,-18.52 -27.57,-27.53z"/>
   <path class="fil1" d="M7820.1 7899.38c631.88,-170.57 1434.69,-880.28 1341.63,-1753.97 258.76,966.35 -569.58,1933.63 -1485.46,2002.57 56.33,-82.3 106.98,-163.13 143.83,-248.6z"/>
   <path class="fil1" d="M7868.72 7487.06c635.2,-266.1 1255.94,-1159.52 940.06,-1930.73 543.5,807.86 -73.67,1911.01 -945.71,2214.61 17.33,-73.55 23.22,-152.01 13.38,-238.59l-0.15 0.02 -0.22 -1.87c-1.92,-14.7 -4.39,-29.18 -7.36,-43.43z"/>
   <path class="fil1" d="M7172.51 9069.91c-211.37,-275.19 -26.61,-878.97 141.8,-1149.84 195.11,-313.8 120.87,-435.05 -169.58,-652.28 -295.28,-220.86 -549.51,-513.13 -615,-887.86 -44.51,-254.7 15.72,-502.72 201.96,-689.34 -257.76,655.36 176.7,1117.73 576.31,1304.94 216.88,117.33 441.72,297.1 474.28,547.19 59.49,523.39 -568.95,755.37 -609.79,1527.19z"/>
   <path class="fil1" d="M7173.66 9443.67c115.05,-424.71 457.61,-640.78 551.36,-742.77 115.59,-125.76 238.27,-293.67 267.04,-484.45 -162.94,93.75 -221.83,75.79 -392.6,101.24 -149.41,403.52 -499.02,600.08 -425.8,1125.98zm328.03 -762.41l-69.83 82.67 15.49 13.08 27.61 -32.68 56.31 47.57 14.62 -17.3 -56.31 -47.57 27.61 -32.68 -15.49 -13.09zm54.72 52.99l13.74 11.61 13.89 -16.44 -13.74 -11.61 -13.89 16.44zm9.08 -33.02c20.72,17.5 39.63,5.31 62.94,-22.28 21.04,-24.89 31.51,-45.2 12.33,-61.41 -18.15,-15.34 -33.58,-0.2 -57.53,25.04 -17.8,18.57 -22.23,21.74 -27.77,17.06 -5.34,-4.5 -3.67,-10.01 10.7,-27.03 15.19,-17.98 23.39,-23.73 31.28,-17.06l14.62 -17.3c-17.75,-14.99 -37.5,-5.33 -58.94,20.05 -21.28,25.19 -29,44.52 -13.21,57.86 16.1,13.6 30.85,6.13 57.06,-21.97 19.56,-20.87 23.83,-23.85 29.78,-18.82 5.64,4.76 3.17,12.07 -12.18,30.23 -18.51,21.91 -26.88,24.74 -34.47,18.33l-14.61 17.3zm88.85 -82.91l13.74 11.61 13.89 -16.44 -13.74 -11.61 -13.89 16.44zm33.74 -43.49l-56.3 -47.56 -14.62 17.3 71.79 60.65 58.47 -69.21 -15.48 -13.09 -43.85 51.91z"/>
  </g>
 </g>
</svg>
